<svg data-v-423bf9ae="" xmlns="http://www.w3.org/2000/svg" viewBox="0 0 556 90" class="iconLeft"><!----><!----><!----><g data-v-423bf9ae="" id="2399c6a2-3ac4-4cf3-a1e9-52e4b3f1e6df" fill="#361C00" transform="matrix(5.9055118997155125,0,0,5.9055118997155125,102.32284645155005,-1.9488194300256367)"><path d="M1.30 3.75L2.97 3.75L2.97 7.49L6.55 3.75L8.82 3.75L4.82 7.84L9.09 12.84L6.94 12.84L3.71 8.99L2.97 9.74L2.97 12.84L1.30 12.84L1.30 3.75ZM10.60 12.84L10.60 6.02L12.25 6.02L12.25 12.84L10.60 12.84ZM10.40 3.84L10.40 3.84L10.40 3.84Q10.40 3.39 10.67 3.13L10.67 3.13L10.67 3.13Q10.93 2.87 11.42 2.87L11.42 2.87L11.42 2.87Q11.90 2.87 12.17 3.13L12.17 3.13L12.17 3.13Q12.45 3.39 12.45 3.84L12.45 3.84L12.45 3.84Q12.45 4.28 12.17 4.54L12.17 4.54L12.17 4.54Q11.90 4.80 11.42 4.80L11.42 4.80L11.42 4.80Q10.93 4.80 10.67 4.54L10.67 4.54L10.67 4.54Q10.40 4.28 10.40 3.84ZM18.65 11.51L18.89 12.67L18.89 12.67Q17.96 13.03 17.43 13.03L17.43 13.03L17.43 13.03Q16.90 13.03 16.50 12.91L16.50 12.91L16.50 12.91Q16.10 12.78 15.79 12.53L15.79 12.53L15.79 12.53Q15.15 11.96 15.15 10.95L15.15 10.95L15.15 7.14L14.20 7.14L14.20 6.03L15.15 6.03L15.15 4.24L16.80 4.24L16.80 6.03L18.65 6.03L18.65 7.14L16.80 7.14L16.80 10.89L16.80 10.89Q16.80 11.73 17.60 11.73L17.60 11.73L17.60 11.73Q18.00 11.73 18.65 11.51L18.65 11.51ZM25.33 6.85L25.33 6.85Q25.68 7.29 25.85 7.88L25.85 7.88L25.85 7.88Q26.03 8.47 26.03 8.96L26.03 8.96L26.03 8.96Q26.03 9.45 25.97 9.84L25.97 9.84L21.57 9.84L21.57 9.84Q21.60 10.67 21.98 11.19L21.98 11.19L21.98 11.19Q22.36 11.70 23.13 11.70L23.13 11.70L23.13 11.70Q24.15 11.70 24.35 10.81L24.35 10.81L26.01 10.81L26.01 10.81Q25.84 11.83 25.07 12.42L25.07 12.42L25.07 12.42Q24.28 13.03 23.13 13.03L23.13 13.03L23.13 13.03Q21.78 13.03 20.87 12.05L20.87 12.05L20.87 12.05Q19.94 11.03 19.94 9.44L19.94 9.44L19.94 9.44Q19.94 7.80 20.87 6.80L20.87 6.80L20.87 6.80Q21.77 5.85 23.13 5.85L23.13 5.85L23.13 5.85Q24.54 5.85 25.33 6.85L25.33 6.85ZM23.14 7.17L23.14 7.17L23.14 7.17Q22.44 7.17 22.05 7.62L22.05 7.62L22.05 7.62Q21.66 8.08 21.59 8.79L21.59 8.79L24.49 8.79L24.49 8.79Q24.49 7.69 23.79 7.31L23.79 7.31L23.79 7.31Q23.52 7.17 23.14 7.17ZM31.54 3.75L33.91 3.75L36.40 9.16L38.89 3.75L41.17 3.75L41.17 12.84L39.51 12.84L39.51 5.94L36.93 11.84L35.85 11.84L33.19 5.74L33.19 12.84L31.54 12.84L31.54 3.75ZM48.30 12.84L48.30 11.61L48.30 11.61Q47.66 12.96 46.23 12.96L46.23 12.96L46.23 12.96Q44.42 12.96 43.85 11.55L43.85 11.55L43.85 11.55Q43.64 11.06 43.64 10.36L43.64 10.36L43.64 6.02L45.29 6.02L45.29 10.19L45.29 10.19Q45.29 10.86 45.61 11.19L45.61 11.19L45.61 11.19Q45.93 11.52 46.40 11.52L46.40 11.52L46.40 11.52Q46.87 11.52 47.19 11.39L47.19 11.39L47.19 11.39Q47.52 11.26 47.75 10.99L47.75 10.99L47.75 10.99Q48.27 10.39 48.30 9.38L48.30 9.38L48.30 6.02L49.95 6.02L49.95 12.84L48.30 12.84ZM56.15 11.51L56.39 12.67L56.39 12.67Q55.47 13.03 54.94 13.03L54.94 13.03L54.94 13.03Q54.40 13.03 54.00 12.91L54.00 12.91L54.00 12.91Q53.61 12.78 53.30 12.53L53.30 12.53L53.30 12.53Q52.65 11.96 52.65 10.95L52.65 10.95L52.65 7.14L51.70 7.14L51.70 6.03L52.65 6.03L52.65 4.24L54.31 4.24L54.31 6.03L56.15 6.03L56.15 7.14L54.31 7.14L54.31 10.89L54.31 10.89Q54.31 11.73 55.10 11.73L55.10 11.73L55.10 11.73Q55.51 11.73 56.15 11.51L56.15 11.51ZM62.61 12.84L62.61 11.61L62.61 11.61Q61.96 12.96 60.54 12.96L60.54 12.96L60.54 12.96Q58.73 12.96 58.16 11.55L58.16 11.55L58.16 11.55Q57.95 11.06 57.95 10.36L57.95 10.36L57.95 6.02L59.60 6.02L59.60 10.19L59.60 10.19Q59.60 10.86 59.92 11.19L59.92 11.19L59.92 11.19Q60.24 11.52 60.71 11.52L60.71 11.52L60.71 11.52Q61.18 11.52 61.50 11.39L61.50 11.39L61.50 11.39Q61.82 11.26 62.06 10.99L62.06 10.99L62.06 10.99Q62.58 10.39 62.61 9.38L62.61 9.38L62.61 6.02L64.26 6.02L64.26 12.84L62.61 12.84ZM69.10 8.86L69.10 8.86L69.10 8.86Q69.92 8.86 70.98 9.13L70.98 9.13L70.98 8.46L70.98 8.46Q70.98 7.74 70.69 7.40L70.69 7.40L70.69 7.40Q70.41 7.06 69.75 7.06L69.75 7.06L69.75 7.06Q69.10 7.06 68.75 7.32L68.75 7.32L68.75 7.32Q68.40 7.57 68.40 8.05L68.40 8.05L66.60 8.05L66.60 8.05Q66.60 6.89 67.42 6.37L67.42 6.37L67.42 6.37Q68.24 5.85 69.71 5.85L69.71 5.85L69.71 5.85Q71.81 5.85 72.42 7.32L72.42 7.32L72.42 7.32Q72.63 7.83 72.63 8.51L72.63 8.51L72.63 12.84L71.19 12.84L71.06 11.93L71.06 11.93Q70.41 13.03 69.05 13.03L69.05 13.03L69.05 13.03Q67.73 13.03 67.00 12.39L67.00 12.39L67.00 12.39Q66.33 11.77 66.33 10.83L66.33 10.83L66.33 10.83Q66.33 9.88 67.07 9.37L67.07 9.37L67.07 9.37Q67.82 8.86 69.10 8.86ZM70.98 10.18L70.98 10.18L70.98 10.18Q70.15 9.95 69.44 9.95L69.44 9.95L69.44 9.95Q68.10 9.95 68.10 10.85L68.10 10.85L68.10 10.85Q68.10 11.23 68.40 11.50L68.40 11.50L68.40 11.50Q68.71 11.77 69.39 11.77L69.39 11.77L69.39 11.77Q70.07 11.77 70.51 11.32L70.51 11.32L70.51 11.32Q70.95 10.86 70.98 10.18ZM75.04 12.84L75.04 3.23L76.69 3.23L76.69 12.84L75.04 12.84Z"></path></g><defs data-v-423bf9ae=""><linearGradient data-v-423bf9ae="" gradientTransform="rotate(25)" id="c3ba9590-6d69-461a-8773-3d838119e9fa" x1="0%" y1="0%" x2="100%" y2="0%"><stop data-v-423bf9ae="" offset="0%" style="stop-color: rgb(235, 76, 0); stop-opacity: 1;"></stop><stop data-v-423bf9ae="" offset="100%" style="stop-color: rgb(242, 169, 0); stop-opacity: 1;"></stop></linearGradient></defs><g data-v-423bf9ae="" id="aa1cb046-d43e-4d1b-9da0-baec69955588" transform="matrix(2.8125,0,0,2.8125,0,0)" stroke="none" fill="url(#c3ba9590-6d69-461a-8773-3d838119e9fa)"><path d="M0 16.024L15.976 32 32 15.976 16.024 0 0 16.024zm15.989 7.323l-7.336-7.336 14.694-.022-7.358 7.358z"></path></g><!----></svg>